<mxfile host="Electron" modified="2024-06-19T17:55:06.978Z" agent="Mozilla/5.0 (Windows NT 10.0; Win64; x64) AppleWebKit/537.36 (KHTML, like Gecko) draw.io/24.5.3 Chrome/124.0.6367.207 Electron/30.0.6 Safari/537.36" etag="n7PdFQ9qYy4M3rVLdIV5" version="24.5.3" type="device">
  <diagram name="Page-1" id="OOWbRKoUnhNHBebO3xgw">
    <mxGraphModel dx="3443" dy="2595" grid="1" gridSize="10" guides="1" tooltips="1" connect="1" arrows="1" fold="1" page="1" pageScale="1" pageWidth="850" pageHeight="1100" math="0" shadow="0">
      <root>
        <mxCell id="0" />
        <mxCell id="1" parent="0" />
        <mxCell id="eUxJNlt0HOpgg095ER0J-3" style="edgeStyle=orthogonalEdgeStyle;rounded=0;orthogonalLoop=1;jettySize=auto;html=1;entryX=0;entryY=0.5;entryDx=0;entryDy=0;" edge="1" parent="1" source="eUxJNlt0HOpgg095ER0J-1" target="eUxJNlt0HOpgg095ER0J-2">
          <mxGeometry relative="1" as="geometry" />
        </mxCell>
        <mxCell id="eUxJNlt0HOpgg095ER0J-4" style="edgeStyle=orthogonalEdgeStyle;rounded=0;orthogonalLoop=1;jettySize=auto;html=1;exitX=1;exitY=0.5;exitDx=0;exitDy=0;entryX=0;entryY=0.25;entryDx=0;entryDy=0;" edge="1" parent="1" source="eUxJNlt0HOpgg095ER0J-1" target="eUxJNlt0HOpgg095ER0J-2">
          <mxGeometry relative="1" as="geometry" />
        </mxCell>
        <mxCell id="eUxJNlt0HOpgg095ER0J-5" style="edgeStyle=orthogonalEdgeStyle;rounded=0;orthogonalLoop=1;jettySize=auto;html=1;exitX=1;exitY=0.5;exitDx=0;exitDy=0;entryX=0;entryY=0.75;entryDx=0;entryDy=0;" edge="1" parent="1" source="eUxJNlt0HOpgg095ER0J-1" target="eUxJNlt0HOpgg095ER0J-2">
          <mxGeometry relative="1" as="geometry" />
        </mxCell>
        <mxCell id="eUxJNlt0HOpgg095ER0J-6" style="edgeStyle=orthogonalEdgeStyle;rounded=0;orthogonalLoop=1;jettySize=auto;html=1;exitX=1;exitY=0.5;exitDx=0;exitDy=0;entryX=0;entryY=0;entryDx=0;entryDy=0;" edge="1" parent="1" source="eUxJNlt0HOpgg095ER0J-1" target="eUxJNlt0HOpgg095ER0J-2">
          <mxGeometry relative="1" as="geometry">
            <Array as="points">
              <mxPoint x="1068" y="340" />
              <mxPoint x="1068" y="295" />
            </Array>
          </mxGeometry>
        </mxCell>
        <mxCell id="eUxJNlt0HOpgg095ER0J-1" value="" style="ellipse;whiteSpace=wrap;html=1;aspect=fixed;" vertex="1" parent="1">
          <mxGeometry x="980" y="310" width="60" height="60" as="geometry" />
        </mxCell>
        <mxCell id="eUxJNlt0HOpgg095ER0J-8" style="edgeStyle=orthogonalEdgeStyle;rounded=0;orthogonalLoop=1;jettySize=auto;html=1;exitX=1;exitY=0;exitDx=0;exitDy=0;entryX=0;entryY=0.5;entryDx=0;entryDy=0;" edge="1" parent="1" source="eUxJNlt0HOpgg095ER0J-2" target="eUxJNlt0HOpgg095ER0J-7">
          <mxGeometry relative="1" as="geometry">
            <Array as="points">
              <mxPoint x="1143" y="295" />
              <mxPoint x="1143" y="340" />
            </Array>
          </mxGeometry>
        </mxCell>
        <mxCell id="eUxJNlt0HOpgg095ER0J-9" style="edgeStyle=orthogonalEdgeStyle;rounded=0;orthogonalLoop=1;jettySize=auto;html=1;exitX=1;exitY=0.25;exitDx=0;exitDy=0;entryX=0;entryY=0.5;entryDx=0;entryDy=0;" edge="1" parent="1" source="eUxJNlt0HOpgg095ER0J-2" target="eUxJNlt0HOpgg095ER0J-7">
          <mxGeometry relative="1" as="geometry" />
        </mxCell>
        <mxCell id="eUxJNlt0HOpgg095ER0J-10" style="edgeStyle=orthogonalEdgeStyle;rounded=0;orthogonalLoop=1;jettySize=auto;html=1;exitX=1;exitY=0.5;exitDx=0;exitDy=0;" edge="1" parent="1" source="eUxJNlt0HOpgg095ER0J-2">
          <mxGeometry relative="1" as="geometry">
            <mxPoint x="1170" y="340.20000000000005" as="targetPoint" />
          </mxGeometry>
        </mxCell>
        <mxCell id="eUxJNlt0HOpgg095ER0J-11" style="edgeStyle=orthogonalEdgeStyle;rounded=0;orthogonalLoop=1;jettySize=auto;html=1;exitX=1;exitY=0.75;exitDx=0;exitDy=0;entryX=0;entryY=0.5;entryDx=0;entryDy=0;" edge="1" parent="1" source="eUxJNlt0HOpgg095ER0J-2" target="eUxJNlt0HOpgg095ER0J-7">
          <mxGeometry relative="1" as="geometry" />
        </mxCell>
        <mxCell id="eUxJNlt0HOpgg095ER0J-2" value="" style="rounded=0;whiteSpace=wrap;html=1;fillColor=#000000;" vertex="1" parent="1">
          <mxGeometry x="1095" y="295" width="20" height="90" as="geometry" />
        </mxCell>
        <mxCell id="eUxJNlt0HOpgg095ER0J-94" style="edgeStyle=orthogonalEdgeStyle;rounded=0;orthogonalLoop=1;jettySize=auto;html=1;exitX=1;exitY=0.5;exitDx=0;exitDy=0;entryX=0;entryY=0.5;entryDx=0;entryDy=0;" edge="1" parent="1" source="eUxJNlt0HOpgg095ER0J-7" target="eUxJNlt0HOpgg095ER0J-70">
          <mxGeometry relative="1" as="geometry" />
        </mxCell>
        <mxCell id="eUxJNlt0HOpgg095ER0J-7" value="" style="ellipse;whiteSpace=wrap;html=1;aspect=fixed;" vertex="1" parent="1">
          <mxGeometry x="1170" y="310" width="60" height="60" as="geometry" />
        </mxCell>
        <mxCell id="eUxJNlt0HOpgg095ER0J-43" style="edgeStyle=orthogonalEdgeStyle;rounded=0;orthogonalLoop=1;jettySize=auto;html=1;exitX=1;exitY=0.5;exitDx=0;exitDy=0;entryX=0;entryY=0.5;entryDx=0;entryDy=0;" edge="1" parent="1" source="eUxJNlt0HOpgg095ER0J-12" target="eUxJNlt0HOpgg095ER0J-13">
          <mxGeometry relative="1" as="geometry" />
        </mxCell>
        <mxCell id="eUxJNlt0HOpgg095ER0J-12" value="" style="ellipse;whiteSpace=wrap;html=1;aspect=fixed;" vertex="1" parent="1">
          <mxGeometry x="-550" y="115" width="60" height="60" as="geometry" />
        </mxCell>
        <mxCell id="eUxJNlt0HOpgg095ER0J-44" style="edgeStyle=orthogonalEdgeStyle;rounded=0;orthogonalLoop=1;jettySize=auto;html=1;exitX=1;exitY=0.5;exitDx=0;exitDy=0;" edge="1" parent="1" source="eUxJNlt0HOpgg095ER0J-13" target="eUxJNlt0HOpgg095ER0J-14">
          <mxGeometry relative="1" as="geometry" />
        </mxCell>
        <mxCell id="eUxJNlt0HOpgg095ER0J-13" value="" style="rounded=0;whiteSpace=wrap;html=1;fillColor=#000000;" vertex="1" parent="1">
          <mxGeometry x="-435" y="100" width="20" height="90" as="geometry" />
        </mxCell>
        <mxCell id="eUxJNlt0HOpgg095ER0J-47" style="edgeStyle=orthogonalEdgeStyle;rounded=0;orthogonalLoop=1;jettySize=auto;html=1;exitX=1;exitY=0.5;exitDx=0;exitDy=0;entryX=0;entryY=0.5;entryDx=0;entryDy=0;" edge="1" parent="1" source="eUxJNlt0HOpgg095ER0J-14" target="eUxJNlt0HOpgg095ER0J-15">
          <mxGeometry relative="1" as="geometry" />
        </mxCell>
        <mxCell id="eUxJNlt0HOpgg095ER0J-14" value="" style="ellipse;whiteSpace=wrap;html=1;aspect=fixed;" vertex="1" parent="1">
          <mxGeometry x="-360" y="115" width="60" height="60" as="geometry" />
        </mxCell>
        <mxCell id="eUxJNlt0HOpgg095ER0J-48" style="edgeStyle=orthogonalEdgeStyle;rounded=0;orthogonalLoop=1;jettySize=auto;html=1;exitX=1;exitY=0.5;exitDx=0;exitDy=0;entryX=0;entryY=0.5;entryDx=0;entryDy=0;" edge="1" parent="1" source="eUxJNlt0HOpgg095ER0J-15" target="eUxJNlt0HOpgg095ER0J-16">
          <mxGeometry relative="1" as="geometry" />
        </mxCell>
        <mxCell id="eUxJNlt0HOpgg095ER0J-15" value="" style="rounded=0;whiteSpace=wrap;html=1;fillColor=#000000;" vertex="1" parent="1">
          <mxGeometry x="-250" y="100" width="20" height="90" as="geometry" />
        </mxCell>
        <mxCell id="eUxJNlt0HOpgg095ER0J-57" value="" style="edgeStyle=orthogonalEdgeStyle;rounded=0;orthogonalLoop=1;jettySize=auto;html=1;" edge="1" parent="1" source="eUxJNlt0HOpgg095ER0J-16" target="eUxJNlt0HOpgg095ER0J-17">
          <mxGeometry relative="1" as="geometry" />
        </mxCell>
        <mxCell id="eUxJNlt0HOpgg095ER0J-16" value="" style="ellipse;whiteSpace=wrap;html=1;aspect=fixed;" vertex="1" parent="1">
          <mxGeometry x="-180" y="310" width="60" height="60" as="geometry" />
        </mxCell>
        <mxCell id="eUxJNlt0HOpgg095ER0J-58" value="" style="edgeStyle=orthogonalEdgeStyle;rounded=0;orthogonalLoop=1;jettySize=auto;html=1;" edge="1" parent="1" source="eUxJNlt0HOpgg095ER0J-17" target="eUxJNlt0HOpgg095ER0J-18">
          <mxGeometry relative="1" as="geometry" />
        </mxCell>
        <mxCell id="eUxJNlt0HOpgg095ER0J-17" value="" style="rounded=0;whiteSpace=wrap;html=1;fillColor=#000000;" vertex="1" parent="1">
          <mxGeometry x="-55" y="295" width="20" height="90" as="geometry" />
        </mxCell>
        <mxCell id="eUxJNlt0HOpgg095ER0J-59" value="" style="edgeStyle=orthogonalEdgeStyle;rounded=0;orthogonalLoop=1;jettySize=auto;html=1;" edge="1" parent="1" source="eUxJNlt0HOpgg095ER0J-18" target="eUxJNlt0HOpgg095ER0J-31">
          <mxGeometry relative="1" as="geometry" />
        </mxCell>
        <mxCell id="eUxJNlt0HOpgg095ER0J-18" value="" style="ellipse;whiteSpace=wrap;html=1;aspect=fixed;" vertex="1" parent="1">
          <mxGeometry x="20" y="310" width="60" height="60" as="geometry" />
        </mxCell>
        <mxCell id="eUxJNlt0HOpgg095ER0J-41" style="edgeStyle=orthogonalEdgeStyle;rounded=0;orthogonalLoop=1;jettySize=auto;html=1;entryX=0;entryY=0.5;entryDx=0;entryDy=0;" edge="1" parent="1" source="eUxJNlt0HOpgg095ER0J-19" target="eUxJNlt0HOpgg095ER0J-20">
          <mxGeometry relative="1" as="geometry" />
        </mxCell>
        <mxCell id="eUxJNlt0HOpgg095ER0J-19" value="" style="ellipse;whiteSpace=wrap;html=1;aspect=fixed;" vertex="1" parent="1">
          <mxGeometry x="-550" y="-9" width="60" height="60" as="geometry" />
        </mxCell>
        <mxCell id="eUxJNlt0HOpgg095ER0J-42" style="edgeStyle=orthogonalEdgeStyle;rounded=0;orthogonalLoop=1;jettySize=auto;html=1;exitX=1;exitY=0.5;exitDx=0;exitDy=0;entryX=0;entryY=0.5;entryDx=0;entryDy=0;" edge="1" parent="1" source="eUxJNlt0HOpgg095ER0J-20" target="eUxJNlt0HOpgg095ER0J-14">
          <mxGeometry relative="1" as="geometry" />
        </mxCell>
        <mxCell id="eUxJNlt0HOpgg095ER0J-20" value="" style="rounded=0;whiteSpace=wrap;html=1;fillColor=#000000;" vertex="1" parent="1">
          <mxGeometry x="-435" y="-24" width="20" height="90" as="geometry" />
        </mxCell>
        <mxCell id="eUxJNlt0HOpgg095ER0J-45" style="edgeStyle=orthogonalEdgeStyle;rounded=0;orthogonalLoop=1;jettySize=auto;html=1;exitX=1;exitY=0.5;exitDx=0;exitDy=0;entryX=0;entryY=0.5;entryDx=0;entryDy=0;" edge="1" parent="1" source="eUxJNlt0HOpgg095ER0J-21" target="eUxJNlt0HOpgg095ER0J-22">
          <mxGeometry relative="1" as="geometry" />
        </mxCell>
        <mxCell id="eUxJNlt0HOpgg095ER0J-21" value="" style="ellipse;whiteSpace=wrap;html=1;aspect=fixed;" vertex="1" parent="1">
          <mxGeometry x="-550" y="235" width="60" height="60" as="geometry" />
        </mxCell>
        <mxCell id="eUxJNlt0HOpgg095ER0J-46" style="edgeStyle=orthogonalEdgeStyle;rounded=0;orthogonalLoop=1;jettySize=auto;html=1;exitX=1;exitY=0.5;exitDx=0;exitDy=0;entryX=0;entryY=0.5;entryDx=0;entryDy=0;" edge="1" parent="1" source="eUxJNlt0HOpgg095ER0J-22" target="eUxJNlt0HOpgg095ER0J-14">
          <mxGeometry relative="1" as="geometry" />
        </mxCell>
        <mxCell id="eUxJNlt0HOpgg095ER0J-22" value="" style="rounded=0;whiteSpace=wrap;html=1;fillColor=#000000;" vertex="1" parent="1">
          <mxGeometry x="-435" y="220" width="20" height="90" as="geometry" />
        </mxCell>
        <mxCell id="eUxJNlt0HOpgg095ER0J-51" style="edgeStyle=orthogonalEdgeStyle;rounded=0;orthogonalLoop=1;jettySize=auto;html=1;exitX=1;exitY=0.5;exitDx=0;exitDy=0;entryX=0;entryY=0.5;entryDx=0;entryDy=0;" edge="1" parent="1" source="eUxJNlt0HOpgg095ER0J-23" target="eUxJNlt0HOpgg095ER0J-24">
          <mxGeometry relative="1" as="geometry" />
        </mxCell>
        <mxCell id="eUxJNlt0HOpgg095ER0J-23" value="" style="ellipse;whiteSpace=wrap;html=1;aspect=fixed;" vertex="1" parent="1">
          <mxGeometry x="-550" y="479" width="60" height="60" as="geometry" />
        </mxCell>
        <mxCell id="eUxJNlt0HOpgg095ER0J-52" style="edgeStyle=orthogonalEdgeStyle;rounded=0;orthogonalLoop=1;jettySize=auto;html=1;exitX=1;exitY=0.5;exitDx=0;exitDy=0;entryX=0;entryY=0.5;entryDx=0;entryDy=0;" edge="1" parent="1" source="eUxJNlt0HOpgg095ER0J-24" target="eUxJNlt0HOpgg095ER0J-25">
          <mxGeometry relative="1" as="geometry" />
        </mxCell>
        <mxCell id="eUxJNlt0HOpgg095ER0J-24" value="" style="rounded=0;whiteSpace=wrap;html=1;fillColor=#000000;" vertex="1" parent="1">
          <mxGeometry x="-435" y="464" width="20" height="90" as="geometry" />
        </mxCell>
        <mxCell id="eUxJNlt0HOpgg095ER0J-55" style="edgeStyle=orthogonalEdgeStyle;rounded=0;orthogonalLoop=1;jettySize=auto;html=1;exitX=1;exitY=0.5;exitDx=0;exitDy=0;entryX=0;entryY=0.5;entryDx=0;entryDy=0;" edge="1" parent="1" source="eUxJNlt0HOpgg095ER0J-25" target="eUxJNlt0HOpgg095ER0J-26">
          <mxGeometry relative="1" as="geometry" />
        </mxCell>
        <mxCell id="eUxJNlt0HOpgg095ER0J-25" value="" style="ellipse;whiteSpace=wrap;html=1;aspect=fixed;" vertex="1" parent="1">
          <mxGeometry x="-360" y="479" width="60" height="60" as="geometry" />
        </mxCell>
        <mxCell id="eUxJNlt0HOpgg095ER0J-56" style="edgeStyle=orthogonalEdgeStyle;rounded=0;orthogonalLoop=1;jettySize=auto;html=1;exitX=1;exitY=0.5;exitDx=0;exitDy=0;entryX=0;entryY=0.5;entryDx=0;entryDy=0;" edge="1" parent="1" source="eUxJNlt0HOpgg095ER0J-26" target="eUxJNlt0HOpgg095ER0J-16">
          <mxGeometry relative="1" as="geometry" />
        </mxCell>
        <mxCell id="eUxJNlt0HOpgg095ER0J-26" value="" style="rounded=0;whiteSpace=wrap;html=1;fillColor=#000000;" vertex="1" parent="1">
          <mxGeometry x="-250" y="464" width="20" height="90" as="geometry" />
        </mxCell>
        <mxCell id="eUxJNlt0HOpgg095ER0J-49" style="edgeStyle=orthogonalEdgeStyle;rounded=0;orthogonalLoop=1;jettySize=auto;html=1;entryX=0;entryY=0.5;entryDx=0;entryDy=0;" edge="1" parent="1" source="eUxJNlt0HOpgg095ER0J-27" target="eUxJNlt0HOpgg095ER0J-28">
          <mxGeometry relative="1" as="geometry" />
        </mxCell>
        <mxCell id="eUxJNlt0HOpgg095ER0J-27" value="" style="ellipse;whiteSpace=wrap;html=1;aspect=fixed;" vertex="1" parent="1">
          <mxGeometry x="-550" y="355" width="60" height="60" as="geometry" />
        </mxCell>
        <mxCell id="eUxJNlt0HOpgg095ER0J-50" style="edgeStyle=orthogonalEdgeStyle;rounded=0;orthogonalLoop=1;jettySize=auto;html=1;exitX=1;exitY=0.5;exitDx=0;exitDy=0;entryX=0;entryY=0.5;entryDx=0;entryDy=0;" edge="1" parent="1" source="eUxJNlt0HOpgg095ER0J-28" target="eUxJNlt0HOpgg095ER0J-25">
          <mxGeometry relative="1" as="geometry" />
        </mxCell>
        <mxCell id="eUxJNlt0HOpgg095ER0J-28" value="" style="rounded=0;whiteSpace=wrap;html=1;fillColor=#000000;" vertex="1" parent="1">
          <mxGeometry x="-435" y="340" width="20" height="90" as="geometry" />
        </mxCell>
        <mxCell id="eUxJNlt0HOpgg095ER0J-53" style="edgeStyle=orthogonalEdgeStyle;rounded=0;orthogonalLoop=1;jettySize=auto;html=1;exitX=1;exitY=0.5;exitDx=0;exitDy=0;entryX=0;entryY=0.5;entryDx=0;entryDy=0;" edge="1" parent="1" source="eUxJNlt0HOpgg095ER0J-29" target="eUxJNlt0HOpgg095ER0J-30">
          <mxGeometry relative="1" as="geometry" />
        </mxCell>
        <mxCell id="eUxJNlt0HOpgg095ER0J-29" value="" style="ellipse;whiteSpace=wrap;html=1;aspect=fixed;" vertex="1" parent="1">
          <mxGeometry x="-550" y="599" width="60" height="60" as="geometry" />
        </mxCell>
        <mxCell id="eUxJNlt0HOpgg095ER0J-54" style="edgeStyle=orthogonalEdgeStyle;rounded=0;orthogonalLoop=1;jettySize=auto;html=1;exitX=1;exitY=0.5;exitDx=0;exitDy=0;entryX=0;entryY=0.5;entryDx=0;entryDy=0;" edge="1" parent="1" source="eUxJNlt0HOpgg095ER0J-30" target="eUxJNlt0HOpgg095ER0J-25">
          <mxGeometry relative="1" as="geometry" />
        </mxCell>
        <mxCell id="eUxJNlt0HOpgg095ER0J-30" value="" style="rounded=0;whiteSpace=wrap;html=1;fillColor=#000000;" vertex="1" parent="1">
          <mxGeometry x="-435" y="584" width="20" height="90" as="geometry" />
        </mxCell>
        <mxCell id="eUxJNlt0HOpgg095ER0J-60" value="" style="edgeStyle=orthogonalEdgeStyle;rounded=0;orthogonalLoop=1;jettySize=auto;html=1;" edge="1" parent="1" source="eUxJNlt0HOpgg095ER0J-31" target="eUxJNlt0HOpgg095ER0J-32">
          <mxGeometry relative="1" as="geometry" />
        </mxCell>
        <mxCell id="eUxJNlt0HOpgg095ER0J-31" value="" style="rounded=0;whiteSpace=wrap;html=1;fillColor=#000000;" vertex="1" parent="1">
          <mxGeometry x="140" y="295" width="20" height="90" as="geometry" />
        </mxCell>
        <mxCell id="eUxJNlt0HOpgg095ER0J-61" value="" style="edgeStyle=orthogonalEdgeStyle;rounded=0;orthogonalLoop=1;jettySize=auto;html=1;" edge="1" parent="1" source="eUxJNlt0HOpgg095ER0J-32" target="eUxJNlt0HOpgg095ER0J-33">
          <mxGeometry relative="1" as="geometry" />
        </mxCell>
        <mxCell id="eUxJNlt0HOpgg095ER0J-32" value="" style="ellipse;whiteSpace=wrap;html=1;aspect=fixed;" vertex="1" parent="1">
          <mxGeometry x="215" y="310" width="60" height="60" as="geometry" />
        </mxCell>
        <mxCell id="eUxJNlt0HOpgg095ER0J-62" value="" style="edgeStyle=orthogonalEdgeStyle;rounded=0;orthogonalLoop=1;jettySize=auto;html=1;" edge="1" parent="1" source="eUxJNlt0HOpgg095ER0J-33" target="eUxJNlt0HOpgg095ER0J-34">
          <mxGeometry relative="1" as="geometry" />
        </mxCell>
        <mxCell id="eUxJNlt0HOpgg095ER0J-33" value="" style="rounded=0;whiteSpace=wrap;html=1;fillColor=#000000;" vertex="1" parent="1">
          <mxGeometry x="330" y="295" width="20" height="90" as="geometry" />
        </mxCell>
        <mxCell id="eUxJNlt0HOpgg095ER0J-63" value="" style="edgeStyle=orthogonalEdgeStyle;rounded=0;orthogonalLoop=1;jettySize=auto;html=1;" edge="1" parent="1" source="eUxJNlt0HOpgg095ER0J-34" target="eUxJNlt0HOpgg095ER0J-35">
          <mxGeometry relative="1" as="geometry" />
        </mxCell>
        <mxCell id="eUxJNlt0HOpgg095ER0J-34" value="" style="ellipse;whiteSpace=wrap;html=1;aspect=fixed;" vertex="1" parent="1">
          <mxGeometry x="405" y="310" width="60" height="60" as="geometry" />
        </mxCell>
        <mxCell id="eUxJNlt0HOpgg095ER0J-64" value="" style="edgeStyle=orthogonalEdgeStyle;rounded=0;orthogonalLoop=1;jettySize=auto;html=1;" edge="1" parent="1" source="eUxJNlt0HOpgg095ER0J-35" target="eUxJNlt0HOpgg095ER0J-36">
          <mxGeometry relative="1" as="geometry" />
        </mxCell>
        <mxCell id="eUxJNlt0HOpgg095ER0J-35" value="" style="rounded=0;whiteSpace=wrap;html=1;fillColor=#000000;" vertex="1" parent="1">
          <mxGeometry x="520" y="295" width="20" height="90" as="geometry" />
        </mxCell>
        <mxCell id="eUxJNlt0HOpgg095ER0J-65" value="" style="edgeStyle=orthogonalEdgeStyle;rounded=0;orthogonalLoop=1;jettySize=auto;html=1;" edge="1" parent="1" source="eUxJNlt0HOpgg095ER0J-36" target="eUxJNlt0HOpgg095ER0J-37">
          <mxGeometry relative="1" as="geometry" />
        </mxCell>
        <mxCell id="eUxJNlt0HOpgg095ER0J-36" value="" style="ellipse;whiteSpace=wrap;html=1;aspect=fixed;" vertex="1" parent="1">
          <mxGeometry x="595" y="310" width="60" height="60" as="geometry" />
        </mxCell>
        <mxCell id="eUxJNlt0HOpgg095ER0J-66" value="" style="edgeStyle=orthogonalEdgeStyle;rounded=0;orthogonalLoop=1;jettySize=auto;html=1;" edge="1" parent="1" source="eUxJNlt0HOpgg095ER0J-37" target="eUxJNlt0HOpgg095ER0J-38">
          <mxGeometry relative="1" as="geometry" />
        </mxCell>
        <mxCell id="eUxJNlt0HOpgg095ER0J-37" value="" style="rounded=0;whiteSpace=wrap;html=1;fillColor=#000000;" vertex="1" parent="1">
          <mxGeometry x="710" y="295" width="20" height="90" as="geometry" />
        </mxCell>
        <mxCell id="eUxJNlt0HOpgg095ER0J-67" value="" style="edgeStyle=orthogonalEdgeStyle;rounded=0;orthogonalLoop=1;jettySize=auto;html=1;" edge="1" parent="1" source="eUxJNlt0HOpgg095ER0J-38" target="eUxJNlt0HOpgg095ER0J-39">
          <mxGeometry relative="1" as="geometry" />
        </mxCell>
        <mxCell id="eUxJNlt0HOpgg095ER0J-38" value="" style="ellipse;whiteSpace=wrap;html=1;aspect=fixed;" vertex="1" parent="1">
          <mxGeometry x="785" y="310" width="60" height="60" as="geometry" />
        </mxCell>
        <mxCell id="eUxJNlt0HOpgg095ER0J-68" value="" style="edgeStyle=orthogonalEdgeStyle;rounded=0;orthogonalLoop=1;jettySize=auto;html=1;" edge="1" parent="1" source="eUxJNlt0HOpgg095ER0J-39" target="eUxJNlt0HOpgg095ER0J-1">
          <mxGeometry relative="1" as="geometry" />
        </mxCell>
        <mxCell id="eUxJNlt0HOpgg095ER0J-39" value="" style="rounded=0;whiteSpace=wrap;html=1;fillColor=#000000;" vertex="1" parent="1">
          <mxGeometry x="900" y="295" width="20" height="90" as="geometry" />
        </mxCell>
        <mxCell id="eUxJNlt0HOpgg095ER0J-95" style="edgeStyle=orthogonalEdgeStyle;rounded=0;orthogonalLoop=1;jettySize=auto;html=1;exitX=1;exitY=0.5;exitDx=0;exitDy=0;" edge="1" parent="1" source="eUxJNlt0HOpgg095ER0J-70" target="eUxJNlt0HOpgg095ER0J-71">
          <mxGeometry relative="1" as="geometry" />
        </mxCell>
        <mxCell id="eUxJNlt0HOpgg095ER0J-70" value="" style="rounded=0;whiteSpace=wrap;html=1;fillColor=#000000;" vertex="1" parent="1">
          <mxGeometry x="1290" y="295" width="20" height="90" as="geometry" />
        </mxCell>
        <mxCell id="eUxJNlt0HOpgg095ER0J-96" style="edgeStyle=orthogonalEdgeStyle;rounded=0;orthogonalLoop=1;jettySize=auto;html=1;exitX=1;exitY=0;exitDx=0;exitDy=0;entryX=0;entryY=0.5;entryDx=0;entryDy=0;" edge="1" parent="1" source="eUxJNlt0HOpgg095ER0J-71" target="eUxJNlt0HOpgg095ER0J-72">
          <mxGeometry relative="1" as="geometry" />
        </mxCell>
        <mxCell id="eUxJNlt0HOpgg095ER0J-97" style="edgeStyle=orthogonalEdgeStyle;rounded=0;orthogonalLoop=1;jettySize=auto;html=1;exitX=1;exitY=1;exitDx=0;exitDy=0;entryX=0;entryY=0.5;entryDx=0;entryDy=0;" edge="1" parent="1" source="eUxJNlt0HOpgg095ER0J-71" target="eUxJNlt0HOpgg095ER0J-74">
          <mxGeometry relative="1" as="geometry" />
        </mxCell>
        <mxCell id="eUxJNlt0HOpgg095ER0J-71" value="" style="ellipse;whiteSpace=wrap;html=1;aspect=fixed;" vertex="1" parent="1">
          <mxGeometry x="1365" y="310" width="60" height="60" as="geometry" />
        </mxCell>
        <mxCell id="eUxJNlt0HOpgg095ER0J-98" style="edgeStyle=orthogonalEdgeStyle;rounded=0;orthogonalLoop=1;jettySize=auto;html=1;entryX=0;entryY=0.5;entryDx=0;entryDy=0;" edge="1" parent="1" source="eUxJNlt0HOpgg095ER0J-72" target="eUxJNlt0HOpgg095ER0J-73">
          <mxGeometry relative="1" as="geometry" />
        </mxCell>
        <mxCell id="eUxJNlt0HOpgg095ER0J-72" value="" style="rounded=0;whiteSpace=wrap;html=1;fillColor=#000000;" vertex="1" parent="1">
          <mxGeometry x="1480" y="205" width="20" height="90" as="geometry" />
        </mxCell>
        <mxCell id="eUxJNlt0HOpgg095ER0J-99" style="edgeStyle=orthogonalEdgeStyle;rounded=0;orthogonalLoop=1;jettySize=auto;html=1;entryX=0;entryY=0.5;entryDx=0;entryDy=0;" edge="1" parent="1" source="eUxJNlt0HOpgg095ER0J-73" target="eUxJNlt0HOpgg095ER0J-76">
          <mxGeometry relative="1" as="geometry" />
        </mxCell>
        <mxCell id="eUxJNlt0HOpgg095ER0J-73" value="" style="ellipse;whiteSpace=wrap;html=1;aspect=fixed;" vertex="1" parent="1">
          <mxGeometry x="1555" y="220" width="60" height="60" as="geometry" />
        </mxCell>
        <mxCell id="eUxJNlt0HOpgg095ER0J-100" style="edgeStyle=orthogonalEdgeStyle;rounded=0;orthogonalLoop=1;jettySize=auto;html=1;entryX=0;entryY=0.5;entryDx=0;entryDy=0;" edge="1" parent="1" source="eUxJNlt0HOpgg095ER0J-74" target="eUxJNlt0HOpgg095ER0J-75">
          <mxGeometry relative="1" as="geometry" />
        </mxCell>
        <mxCell id="eUxJNlt0HOpgg095ER0J-74" value="" style="rounded=0;whiteSpace=wrap;html=1;fillColor=#000000;" vertex="1" parent="1">
          <mxGeometry x="1480" y="385" width="20" height="90" as="geometry" />
        </mxCell>
        <mxCell id="eUxJNlt0HOpgg095ER0J-101" style="edgeStyle=orthogonalEdgeStyle;rounded=0;orthogonalLoop=1;jettySize=auto;html=1;entryX=0;entryY=0.5;entryDx=0;entryDy=0;" edge="1" parent="1" source="eUxJNlt0HOpgg095ER0J-75" target="eUxJNlt0HOpgg095ER0J-85">
          <mxGeometry relative="1" as="geometry" />
        </mxCell>
        <mxCell id="eUxJNlt0HOpgg095ER0J-75" value="" style="ellipse;whiteSpace=wrap;html=1;aspect=fixed;" vertex="1" parent="1">
          <mxGeometry x="1555" y="400" width="60" height="60" as="geometry" />
        </mxCell>
        <mxCell id="eUxJNlt0HOpgg095ER0J-103" style="edgeStyle=orthogonalEdgeStyle;rounded=0;orthogonalLoop=1;jettySize=auto;html=1;exitX=1;exitY=0.5;exitDx=0;exitDy=0;entryX=0.5;entryY=0;entryDx=0;entryDy=0;" edge="1" parent="1" source="eUxJNlt0HOpgg095ER0J-76" target="eUxJNlt0HOpgg095ER0J-77">
          <mxGeometry relative="1" as="geometry" />
        </mxCell>
        <mxCell id="eUxJNlt0HOpgg095ER0J-76" value="" style="rounded=0;whiteSpace=wrap;html=1;fillColor=#000000;" vertex="1" parent="1">
          <mxGeometry x="1690" y="205" width="20" height="90" as="geometry" />
        </mxCell>
        <mxCell id="eUxJNlt0HOpgg095ER0J-104" style="edgeStyle=orthogonalEdgeStyle;rounded=0;orthogonalLoop=1;jettySize=auto;html=1;" edge="1" parent="1" source="eUxJNlt0HOpgg095ER0J-77" target="eUxJNlt0HOpgg095ER0J-86">
          <mxGeometry relative="1" as="geometry" />
        </mxCell>
        <mxCell id="eUxJNlt0HOpgg095ER0J-106" style="edgeStyle=orthogonalEdgeStyle;rounded=0;orthogonalLoop=1;jettySize=auto;html=1;exitX=1;exitY=1;exitDx=0;exitDy=0;entryX=0;entryY=1;entryDx=0;entryDy=0;" edge="1" parent="1" source="eUxJNlt0HOpgg095ER0J-77" target="eUxJNlt0HOpgg095ER0J-86">
          <mxGeometry relative="1" as="geometry">
            <Array as="points">
              <mxPoint x="1838" y="361" />
              <mxPoint x="1838" y="385" />
            </Array>
          </mxGeometry>
        </mxCell>
        <mxCell id="eUxJNlt0HOpgg095ER0J-107" style="edgeStyle=orthogonalEdgeStyle;rounded=0;orthogonalLoop=1;jettySize=auto;html=1;exitX=1;exitY=0;exitDx=0;exitDy=0;entryX=0;entryY=0;entryDx=0;entryDy=0;" edge="1" parent="1" source="eUxJNlt0HOpgg095ER0J-77" target="eUxJNlt0HOpgg095ER0J-86">
          <mxGeometry relative="1" as="geometry">
            <Array as="points">
              <mxPoint x="1838" y="319" />
              <mxPoint x="1838" y="295" />
            </Array>
          </mxGeometry>
        </mxCell>
        <mxCell id="eUxJNlt0HOpgg095ER0J-109" style="edgeStyle=orthogonalEdgeStyle;rounded=0;orthogonalLoop=1;jettySize=auto;html=1;exitX=1;exitY=0.5;exitDx=0;exitDy=0;entryX=0;entryY=0.75;entryDx=0;entryDy=0;" edge="1" parent="1" source="eUxJNlt0HOpgg095ER0J-77" target="eUxJNlt0HOpgg095ER0J-86">
          <mxGeometry relative="1" as="geometry" />
        </mxCell>
        <mxCell id="eUxJNlt0HOpgg095ER0J-77" value="" style="ellipse;whiteSpace=wrap;html=1;aspect=fixed;" vertex="1" parent="1">
          <mxGeometry x="1755" y="310" width="60" height="60" as="geometry" />
        </mxCell>
        <mxCell id="eUxJNlt0HOpgg095ER0J-105" style="edgeStyle=orthogonalEdgeStyle;rounded=0;orthogonalLoop=1;jettySize=auto;html=1;exitX=0;exitY=0.5;exitDx=0;exitDy=0;entryX=0.5;entryY=0;entryDx=0;entryDy=0;" edge="1" parent="1" source="eUxJNlt0HOpgg095ER0J-78" target="eUxJNlt0HOpgg095ER0J-77">
          <mxGeometry relative="1" as="geometry" />
        </mxCell>
        <mxCell id="eUxJNlt0HOpgg095ER0J-78" value="" style="rounded=0;whiteSpace=wrap;html=1;fillColor=#000000;rotation=-90;" vertex="1" parent="1">
          <mxGeometry x="1775" y="135" width="20" height="90" as="geometry" />
        </mxCell>
        <mxCell id="eUxJNlt0HOpgg095ER0J-121" value="" style="edgeStyle=orthogonalEdgeStyle;rounded=0;orthogonalLoop=1;jettySize=auto;html=1;" edge="1" parent="1" source="eUxJNlt0HOpgg095ER0J-79" target="eUxJNlt0HOpgg095ER0J-78">
          <mxGeometry relative="1" as="geometry" />
        </mxCell>
        <mxCell id="eUxJNlt0HOpgg095ER0J-79" value="" style="ellipse;whiteSpace=wrap;html=1;aspect=fixed;" vertex="1" parent="1">
          <mxGeometry x="1755" y="56" width="60" height="60" as="geometry" />
        </mxCell>
        <mxCell id="eUxJNlt0HOpgg095ER0J-120" value="" style="edgeStyle=orthogonalEdgeStyle;rounded=0;orthogonalLoop=1;jettySize=auto;html=1;" edge="1" parent="1" source="eUxJNlt0HOpgg095ER0J-80" target="eUxJNlt0HOpgg095ER0J-79">
          <mxGeometry relative="1" as="geometry" />
        </mxCell>
        <mxCell id="eUxJNlt0HOpgg095ER0J-80" value="" style="rounded=0;whiteSpace=wrap;html=1;fillColor=#000000;rotation=-90;" vertex="1" parent="1">
          <mxGeometry x="1775" y="-65" width="20" height="90" as="geometry" />
        </mxCell>
        <mxCell id="eUxJNlt0HOpgg095ER0J-119" value="" style="edgeStyle=orthogonalEdgeStyle;rounded=0;orthogonalLoop=1;jettySize=auto;html=1;" edge="1" parent="1" source="eUxJNlt0HOpgg095ER0J-81" target="eUxJNlt0HOpgg095ER0J-80">
          <mxGeometry relative="1" as="geometry" />
        </mxCell>
        <mxCell id="eUxJNlt0HOpgg095ER0J-81" value="" style="ellipse;whiteSpace=wrap;html=1;aspect=fixed;" vertex="1" parent="1">
          <mxGeometry x="1755" y="-144" width="60" height="60" as="geometry" />
        </mxCell>
        <mxCell id="eUxJNlt0HOpgg095ER0J-102" style="edgeStyle=orthogonalEdgeStyle;rounded=0;orthogonalLoop=1;jettySize=auto;html=1;exitX=1;exitY=0.5;exitDx=0;exitDy=0;" edge="1" parent="1" source="eUxJNlt0HOpgg095ER0J-85" target="eUxJNlt0HOpgg095ER0J-77">
          <mxGeometry relative="1" as="geometry" />
        </mxCell>
        <mxCell id="eUxJNlt0HOpgg095ER0J-85" value="" style="rounded=0;whiteSpace=wrap;html=1;fillColor=#000000;" vertex="1" parent="1">
          <mxGeometry x="1690" y="385" width="20" height="90" as="geometry" />
        </mxCell>
        <mxCell id="eUxJNlt0HOpgg095ER0J-111" style="edgeStyle=orthogonalEdgeStyle;rounded=0;orthogonalLoop=1;jettySize=auto;html=1;entryX=0;entryY=0.5;entryDx=0;entryDy=0;" edge="1" parent="1" source="eUxJNlt0HOpgg095ER0J-86" target="eUxJNlt0HOpgg095ER0J-87">
          <mxGeometry relative="1" as="geometry" />
        </mxCell>
        <mxCell id="eUxJNlt0HOpgg095ER0J-86" value="" style="rounded=0;whiteSpace=wrap;html=1;fillColor=#000000;" vertex="1" parent="1">
          <mxGeometry x="1860" y="295" width="20" height="90" as="geometry" />
        </mxCell>
        <mxCell id="eUxJNlt0HOpgg095ER0J-114" style="edgeStyle=orthogonalEdgeStyle;rounded=0;orthogonalLoop=1;jettySize=auto;html=1;entryX=0;entryY=0.5;entryDx=0;entryDy=0;" edge="1" parent="1" source="eUxJNlt0HOpgg095ER0J-87" target="eUxJNlt0HOpgg095ER0J-90">
          <mxGeometry relative="1" as="geometry" />
        </mxCell>
        <mxCell id="eUxJNlt0HOpgg095ER0J-115" style="edgeStyle=orthogonalEdgeStyle;rounded=0;orthogonalLoop=1;jettySize=auto;html=1;exitX=1;exitY=0.5;exitDx=0;exitDy=0;entryX=0;entryY=0.25;entryDx=0;entryDy=0;" edge="1" parent="1" source="eUxJNlt0HOpgg095ER0J-87" target="eUxJNlt0HOpgg095ER0J-90">
          <mxGeometry relative="1" as="geometry" />
        </mxCell>
        <mxCell id="eUxJNlt0HOpgg095ER0J-87" value="" style="ellipse;whiteSpace=wrap;html=1;aspect=fixed;" vertex="1" parent="1">
          <mxGeometry x="1935" y="310" width="60" height="60" as="geometry" />
        </mxCell>
        <mxCell id="eUxJNlt0HOpgg095ER0J-112" style="edgeStyle=orthogonalEdgeStyle;rounded=0;orthogonalLoop=1;jettySize=auto;html=1;entryX=0.5;entryY=0;entryDx=0;entryDy=0;" edge="1" parent="1" source="eUxJNlt0HOpgg095ER0J-88" target="eUxJNlt0HOpgg095ER0J-87">
          <mxGeometry relative="1" as="geometry" />
        </mxCell>
        <mxCell id="eUxJNlt0HOpgg095ER0J-88" value="" style="rounded=0;whiteSpace=wrap;html=1;fillColor=#000000;rotation=-90;" vertex="1" parent="1">
          <mxGeometry x="1955" y="135" width="20" height="90" as="geometry" />
        </mxCell>
        <mxCell id="eUxJNlt0HOpgg095ER0J-113" style="edgeStyle=orthogonalEdgeStyle;rounded=0;orthogonalLoop=1;jettySize=auto;html=1;entryX=1;entryY=0.5;entryDx=0;entryDy=0;" edge="1" parent="1" source="eUxJNlt0HOpgg095ER0J-89" target="eUxJNlt0HOpgg095ER0J-88">
          <mxGeometry relative="1" as="geometry" />
        </mxCell>
        <mxCell id="eUxJNlt0HOpgg095ER0J-89" value="" style="ellipse;whiteSpace=wrap;html=1;aspect=fixed;" vertex="1" parent="1">
          <mxGeometry x="1935" y="56" width="60" height="60" as="geometry" />
        </mxCell>
        <mxCell id="eUxJNlt0HOpgg095ER0J-116" style="edgeStyle=orthogonalEdgeStyle;rounded=0;orthogonalLoop=1;jettySize=auto;html=1;" edge="1" parent="1" source="eUxJNlt0HOpgg095ER0J-90" target="eUxJNlt0HOpgg095ER0J-91">
          <mxGeometry relative="1" as="geometry" />
        </mxCell>
        <mxCell id="eUxJNlt0HOpgg095ER0J-90" value="" style="rounded=0;whiteSpace=wrap;html=1;fillColor=#000000;" vertex="1" parent="1">
          <mxGeometry x="2050" y="295" width="20" height="90" as="geometry" />
        </mxCell>
        <mxCell id="eUxJNlt0HOpgg095ER0J-117" style="edgeStyle=orthogonalEdgeStyle;rounded=0;orthogonalLoop=1;jettySize=auto;html=1;entryX=0;entryY=0.5;entryDx=0;entryDy=0;" edge="1" parent="1" source="eUxJNlt0HOpgg095ER0J-91" target="eUxJNlt0HOpgg095ER0J-92">
          <mxGeometry relative="1" as="geometry" />
        </mxCell>
        <mxCell id="eUxJNlt0HOpgg095ER0J-91" value="" style="ellipse;whiteSpace=wrap;html=1;aspect=fixed;" vertex="1" parent="1">
          <mxGeometry x="2125" y="310" width="60" height="60" as="geometry" />
        </mxCell>
        <mxCell id="eUxJNlt0HOpgg095ER0J-118" style="edgeStyle=orthogonalEdgeStyle;rounded=0;orthogonalLoop=1;jettySize=auto;html=1;entryX=0;entryY=0.5;entryDx=0;entryDy=0;" edge="1" parent="1" source="eUxJNlt0HOpgg095ER0J-92" target="eUxJNlt0HOpgg095ER0J-93">
          <mxGeometry relative="1" as="geometry" />
        </mxCell>
        <mxCell id="eUxJNlt0HOpgg095ER0J-92" value="" style="rounded=0;whiteSpace=wrap;html=1;fillColor=#000000;" vertex="1" parent="1">
          <mxGeometry x="2250" y="295" width="20" height="90" as="geometry" />
        </mxCell>
        <mxCell id="eUxJNlt0HOpgg095ER0J-93" value="" style="ellipse;whiteSpace=wrap;html=1;aspect=fixed;" vertex="1" parent="1">
          <mxGeometry x="2325" y="310" width="60" height="60" as="geometry" />
        </mxCell>
        <mxCell id="eUxJNlt0HOpgg095ER0J-108" style="edgeStyle=orthogonalEdgeStyle;rounded=0;orthogonalLoop=1;jettySize=auto;html=1;entryX=-0.097;entryY=0.247;entryDx=0;entryDy=0;entryPerimeter=0;" edge="1" parent="1" source="eUxJNlt0HOpgg095ER0J-77" target="eUxJNlt0HOpgg095ER0J-86">
          <mxGeometry relative="1" as="geometry" />
        </mxCell>
        <mxCell id="eUxJNlt0HOpgg095ER0J-122" value="Product A" style="text;html=1;align=center;verticalAlign=middle;resizable=0;points=[];autosize=1;strokeColor=none;fillColor=none;" vertex="1" parent="1">
          <mxGeometry x="-560" y="-50" width="80" height="30" as="geometry" />
        </mxCell>
        <mxCell id="eUxJNlt0HOpgg095ER0J-123" value="Product B" style="text;html=1;align=center;verticalAlign=middle;resizable=0;points=[];autosize=1;strokeColor=none;fillColor=none;" vertex="1" parent="1">
          <mxGeometry x="-560" y="85" width="80" height="30" as="geometry" />
        </mxCell>
        <mxCell id="eUxJNlt0HOpgg095ER0J-124" value="Product C" style="text;html=1;align=center;verticalAlign=middle;resizable=0;points=[];autosize=1;strokeColor=none;fillColor=none;" vertex="1" parent="1">
          <mxGeometry x="-560" y="205" width="80" height="30" as="geometry" />
        </mxCell>
        <mxCell id="eUxJNlt0HOpgg095ER0J-125" value="Product D" style="text;html=1;align=center;verticalAlign=middle;resizable=0;points=[];autosize=1;strokeColor=none;fillColor=none;" vertex="1" parent="1">
          <mxGeometry x="-560" y="325" width="80" height="30" as="geometry" />
        </mxCell>
        <mxCell id="eUxJNlt0HOpgg095ER0J-126" value="Product E" style="text;html=1;align=center;verticalAlign=middle;resizable=0;points=[];autosize=1;strokeColor=none;fillColor=none;" vertex="1" parent="1">
          <mxGeometry x="-560" y="449" width="80" height="30" as="geometry" />
        </mxCell>
        <mxCell id="eUxJNlt0HOpgg095ER0J-127" value="Product F" style="text;html=1;align=center;verticalAlign=middle;resizable=0;points=[];autosize=1;strokeColor=none;fillColor=none;" vertex="1" parent="1">
          <mxGeometry x="-560" y="569" width="80" height="30" as="geometry" />
        </mxCell>
        <mxCell id="eUxJNlt0HOpgg095ER0J-128" value="Milling Machine 1" style="text;html=1;align=center;verticalAlign=middle;resizable=0;points=[];autosize=1;strokeColor=none;fillColor=none;" vertex="1" parent="1">
          <mxGeometry x="-390" y="85" width="120" height="30" as="geometry" />
        </mxCell>
        <mxCell id="eUxJNlt0HOpgg095ER0J-129" value="Milling Machine 2" style="text;html=1;align=center;verticalAlign=middle;resizable=0;points=[];autosize=1;strokeColor=none;fillColor=none;" vertex="1" parent="1">
          <mxGeometry x="-390" y="449" width="120" height="30" as="geometry" />
        </mxCell>
        <mxCell id="eUxJNlt0HOpgg095ER0J-130" value="Command to mill&lt;div&gt;&amp;nbsp;a product&lt;/div&gt;" style="text;html=1;align=center;verticalAlign=middle;resizable=0;points=[];autosize=1;strokeColor=none;fillColor=none;" vertex="1" parent="1">
          <mxGeometry x="-480" y="-64" width="110" height="40" as="geometry" />
        </mxCell>
        <mxCell id="eUxJNlt0HOpgg095ER0J-131" value="Mill Pr. B" style="text;html=1;align=center;verticalAlign=middle;resizable=0;points=[];autosize=1;strokeColor=none;fillColor=none;" vertex="1" parent="1">
          <mxGeometry x="-460" y="70" width="70" height="30" as="geometry" />
        </mxCell>
        <mxCell id="eUxJNlt0HOpgg095ER0J-132" value="Mill Pr. C" style="text;html=1;align=center;verticalAlign=middle;resizable=0;points=[];autosize=1;strokeColor=none;fillColor=none;" vertex="1" parent="1">
          <mxGeometry x="-460" y="190" width="70" height="30" as="geometry" />
        </mxCell>
        <mxCell id="eUxJNlt0HOpgg095ER0J-133" value="Mill Pr. D" style="text;html=1;align=center;verticalAlign=middle;resizable=0;points=[];autosize=1;strokeColor=none;fillColor=none;" vertex="1" parent="1">
          <mxGeometry x="-460" y="310" width="70" height="30" as="geometry" />
        </mxCell>
        <mxCell id="eUxJNlt0HOpgg095ER0J-134" value="Mill Pr. E" style="text;html=1;align=center;verticalAlign=middle;resizable=0;points=[];autosize=1;strokeColor=none;fillColor=none;" vertex="1" parent="1">
          <mxGeometry x="-460" y="434" width="70" height="30" as="geometry" />
        </mxCell>
        <mxCell id="eUxJNlt0HOpgg095ER0J-135" value="Mill Pr. F" style="text;html=1;align=center;verticalAlign=middle;resizable=0;points=[];autosize=1;strokeColor=none;fillColor=none;" vertex="1" parent="1">
          <mxGeometry x="-460" y="554" width="70" height="30" as="geometry" />
        </mxCell>
        <mxCell id="eUxJNlt0HOpgg095ER0J-136" value="Milling Process" style="text;html=1;align=center;verticalAlign=middle;resizable=0;points=[];autosize=1;strokeColor=none;fillColor=none;" vertex="1" parent="1">
          <mxGeometry x="-290" y="70" width="100" height="30" as="geometry" />
        </mxCell>
        <mxCell id="eUxJNlt0HOpgg095ER0J-137" value="Milling Process" style="text;html=1;align=center;verticalAlign=middle;resizable=0;points=[];autosize=1;strokeColor=none;fillColor=none;" vertex="1" parent="1">
          <mxGeometry x="-290" y="434" width="100" height="30" as="geometry" />
        </mxCell>
        <mxCell id="eUxJNlt0HOpgg095ER0J-138" value="Sawing Machine" style="text;html=1;align=center;verticalAlign=middle;resizable=0;points=[];autosize=1;strokeColor=none;fillColor=none;" vertex="1" parent="1">
          <mxGeometry x="-205" y="280" width="110" height="30" as="geometry" />
        </mxCell>
        <mxCell id="eUxJNlt0HOpgg095ER0J-139" value="Sawing Process" style="text;html=1;align=center;verticalAlign=middle;resizable=0;points=[];autosize=1;strokeColor=none;fillColor=none;" vertex="1" parent="1">
          <mxGeometry x="-100" y="265" width="110" height="30" as="geometry" />
        </mxCell>
        <mxCell id="eUxJNlt0HOpgg095ER0J-140" value="Cleaning &amp;amp;&amp;nbsp;&lt;div&gt;Drying&lt;/div&gt;" style="text;html=1;align=center;verticalAlign=middle;resizable=0;points=[];autosize=1;strokeColor=none;fillColor=none;" vertex="1" parent="1">
          <mxGeometry x="5" y="270" width="90" height="40" as="geometry" />
        </mxCell>
        <mxCell id="eUxJNlt0HOpgg095ER0J-141" value="Cleaning &amp;amp;&amp;nbsp;&lt;div&gt;Drying Process&lt;/div&gt;" style="text;html=1;align=center;verticalAlign=middle;resizable=0;points=[];autosize=1;strokeColor=none;fillColor=none;" vertex="1" parent="1">
          <mxGeometry x="100" y="255" width="100" height="40" as="geometry" />
        </mxCell>
        <mxCell id="eUxJNlt0HOpgg095ER0J-142" value="Verification" style="text;html=1;align=center;verticalAlign=middle;resizable=0;points=[];autosize=1;strokeColor=none;fillColor=none;" vertex="1" parent="1">
          <mxGeometry x="205" y="280" width="80" height="30" as="geometry" />
        </mxCell>
        <mxCell id="eUxJNlt0HOpgg095ER0J-143" value="Verification&amp;nbsp;&lt;div&gt;Process&lt;/div&gt;" style="text;html=1;align=center;verticalAlign=middle;resizable=0;points=[];autosize=1;strokeColor=none;fillColor=none;" vertex="1" parent="1">
          <mxGeometry x="295" y="255" width="90" height="40" as="geometry" />
        </mxCell>
        <mxCell id="eUxJNlt0HOpgg095ER0J-144" value="Laser Machine &amp;amp;&lt;div&gt;&amp;nbsp;Storage for products&lt;/div&gt;" style="text;html=1;align=center;verticalAlign=middle;resizable=0;points=[];autosize=1;strokeColor=none;fillColor=none;" vertex="1" parent="1">
          <mxGeometry x="365" y="270" width="140" height="40" as="geometry" />
        </mxCell>
        <mxCell id="eUxJNlt0HOpgg095ER0J-145" value="Laser Process" style="text;html=1;align=center;verticalAlign=middle;resizable=0;points=[];autosize=1;strokeColor=none;fillColor=none;" vertex="1" parent="1">
          <mxGeometry x="480" y="265" width="100" height="30" as="geometry" />
        </mxCell>
        <mxCell id="eUxJNlt0HOpgg095ER0J-146" value="Cleaning &amp;amp;&amp;nbsp;&lt;div&gt;Drying&lt;/div&gt;" style="text;html=1;align=center;verticalAlign=middle;resizable=0;points=[];autosize=1;strokeColor=none;fillColor=none;" vertex="1" parent="1">
          <mxGeometry x="580" y="270" width="90" height="40" as="geometry" />
        </mxCell>
        <mxCell id="eUxJNlt0HOpgg095ER0J-147" value="Cleaning &amp;amp;&amp;nbsp;&lt;div&gt;Drying Process&lt;/div&gt;" style="text;html=1;align=center;verticalAlign=middle;resizable=0;points=[];autosize=1;strokeColor=none;fillColor=none;" vertex="1" parent="1">
          <mxGeometry x="675" y="255" width="100" height="40" as="geometry" />
        </mxCell>
        <mxCell id="eUxJNlt0HOpgg095ER0J-148" value="Verification" style="text;html=1;align=center;verticalAlign=middle;resizable=0;points=[];autosize=1;strokeColor=none;fillColor=none;" vertex="1" parent="1">
          <mxGeometry x="780" y="280" width="80" height="30" as="geometry" />
        </mxCell>
        <mxCell id="eUxJNlt0HOpgg095ER0J-149" value="Verification Process" style="text;html=1;align=center;verticalAlign=middle;resizable=0;points=[];autosize=1;strokeColor=none;fillColor=none;" vertex="1" parent="1">
          <mxGeometry x="850" y="265" width="130" height="30" as="geometry" />
        </mxCell>
        <mxCell id="eUxJNlt0HOpgg095ER0J-150" value="Main Storage&amp;nbsp;&lt;div&gt;for Products&lt;/div&gt;" style="text;html=1;align=center;verticalAlign=middle;resizable=0;points=[];autosize=1;strokeColor=none;fillColor=none;" vertex="1" parent="1">
          <mxGeometry x="960" y="270" width="100" height="40" as="geometry" />
        </mxCell>
        <mxCell id="eUxJNlt0HOpgg095ER0J-151" value="Transport to&amp;nbsp;&lt;div&gt;Commissioning&lt;/div&gt;" style="text;html=1;align=center;verticalAlign=middle;resizable=0;points=[];autosize=1;strokeColor=none;fillColor=none;" vertex="1" parent="1">
          <mxGeometry x="1050" y="255" width="110" height="40" as="geometry" />
        </mxCell>
        <mxCell id="eUxJNlt0HOpgg095ER0J-152" value="Commissioning" style="text;html=1;align=center;verticalAlign=middle;resizable=0;points=[];autosize=1;strokeColor=none;fillColor=none;" vertex="1" parent="1">
          <mxGeometry x="1145" y="280" width="110" height="30" as="geometry" />
        </mxCell>
        <mxCell id="eUxJNlt0HOpgg095ER0J-153" value="Transport to&amp;nbsp;&lt;div&gt;Powder coating&lt;/div&gt;" style="text;html=1;align=center;verticalAlign=middle;resizable=0;points=[];autosize=1;strokeColor=none;fillColor=none;" vertex="1" parent="1">
          <mxGeometry x="1245" y="255" width="110" height="40" as="geometry" />
        </mxCell>
        <mxCell id="eUxJNlt0HOpgg095ER0J-154" value="Powder Coating" style="text;html=1;align=center;verticalAlign=middle;resizable=0;points=[];autosize=1;strokeColor=none;fillColor=none;" vertex="1" parent="1">
          <mxGeometry x="1340" y="280" width="110" height="30" as="geometry" />
        </mxCell>
        <mxCell id="eUxJNlt0HOpgg095ER0J-155" value="Transport to oven" style="text;html=1;align=center;verticalAlign=middle;resizable=0;points=[];autosize=1;strokeColor=none;fillColor=none;" vertex="1" parent="1">
          <mxGeometry x="1430" y="175" width="120" height="30" as="geometry" />
        </mxCell>
        <mxCell id="eUxJNlt0HOpgg095ER0J-156" value="Transport to oven" style="text;html=1;align=center;verticalAlign=middle;resizable=0;points=[];autosize=1;strokeColor=none;fillColor=none;" vertex="1" parent="1">
          <mxGeometry x="1430" y="355" width="120" height="30" as="geometry" />
        </mxCell>
        <mxCell id="eUxJNlt0HOpgg095ER0J-157" value="Oven 2" style="text;html=1;align=center;verticalAlign=middle;resizable=0;points=[];autosize=1;strokeColor=none;fillColor=none;" vertex="1" parent="1">
          <mxGeometry x="1555" y="370" width="60" height="30" as="geometry" />
        </mxCell>
        <mxCell id="eUxJNlt0HOpgg095ER0J-158" value="Oven 1" style="text;html=1;align=center;verticalAlign=middle;resizable=0;points=[];autosize=1;strokeColor=none;fillColor=none;" vertex="1" parent="1">
          <mxGeometry x="1555" y="190" width="60" height="30" as="geometry" />
        </mxCell>
        <mxCell id="eUxJNlt0HOpgg095ER0J-159" value="Oven Process" style="text;html=1;align=center;verticalAlign=middle;resizable=0;points=[];autosize=1;strokeColor=none;fillColor=none;" vertex="1" parent="1">
          <mxGeometry x="1650" y="175" width="100" height="30" as="geometry" />
        </mxCell>
        <mxCell id="eUxJNlt0HOpgg095ER0J-160" value="Oven Process" style="text;html=1;align=center;verticalAlign=middle;resizable=0;points=[];autosize=1;strokeColor=none;fillColor=none;" vertex="1" parent="1">
          <mxGeometry x="1650" y="355" width="100" height="30" as="geometry" />
        </mxCell>
        <mxCell id="eUxJNlt0HOpgg095ER0J-161" value="Montage" style="text;html=1;align=center;verticalAlign=middle;resizable=0;points=[];autosize=1;strokeColor=none;fillColor=none;" vertex="1" parent="1">
          <mxGeometry x="1690" y="325" width="70" height="30" as="geometry" />
        </mxCell>
        <mxCell id="eUxJNlt0HOpgg095ER0J-162" value="Order to manufacture base" style="text;html=1;align=center;verticalAlign=middle;resizable=0;points=[];autosize=1;strokeColor=none;fillColor=none;" vertex="1" parent="1">
          <mxGeometry x="1700" y="-174" width="170" height="30" as="geometry" />
        </mxCell>
        <mxCell id="eUxJNlt0HOpgg095ER0J-163" value="3D Printer" style="text;html=1;align=center;verticalAlign=middle;resizable=0;points=[];autosize=1;strokeColor=none;fillColor=none;" vertex="1" parent="1">
          <mxGeometry x="1675" y="71" width="80" height="30" as="geometry" />
        </mxCell>
        <mxCell id="eUxJNlt0HOpgg095ER0J-164" value="3D Printing" style="text;html=1;align=center;verticalAlign=middle;resizable=0;points=[];autosize=1;strokeColor=none;fillColor=none;" vertex="1" parent="1">
          <mxGeometry x="1830" y="165" width="80" height="30" as="geometry" />
        </mxCell>
        <mxCell id="eUxJNlt0HOpgg095ER0J-165" value="Product Order&lt;div&gt;&amp;nbsp;request&lt;/div&gt;" style="text;html=1;align=center;verticalAlign=middle;resizable=0;points=[];autosize=1;strokeColor=none;fillColor=none;" vertex="1" parent="1">
          <mxGeometry x="1830" y="-40" width="100" height="40" as="geometry" />
        </mxCell>
        <mxCell id="eUxJNlt0HOpgg095ER0J-166" value="Electrical Function Mounting" style="text;html=1;align=center;verticalAlign=middle;resizable=0;points=[];autosize=1;strokeColor=none;fillColor=none;" vertex="1" parent="1">
          <mxGeometry x="2010" y="165" width="170" height="30" as="geometry" />
        </mxCell>
        <mxCell id="eUxJNlt0HOpgg095ER0J-167" value="Electrical Function Order" style="text;html=1;align=center;verticalAlign=middle;resizable=0;points=[];autosize=1;strokeColor=none;fillColor=none;" vertex="1" parent="1">
          <mxGeometry x="1885" y="25" width="160" height="30" as="geometry" />
        </mxCell>
        <mxCell id="eUxJNlt0HOpgg095ER0J-168" value="Eletrical Function&lt;div&gt;&amp;nbsp;Verification&lt;/div&gt;" style="text;html=1;align=center;verticalAlign=middle;resizable=0;points=[];autosize=1;strokeColor=none;fillColor=none;" vertex="1" parent="1">
          <mxGeometry x="1905" y="370" width="120" height="40" as="geometry" />
        </mxCell>
        <mxCell id="eUxJNlt0HOpgg095ER0J-169" value="Mounting mechanical parts" style="text;html=1;align=center;verticalAlign=middle;resizable=0;points=[];autosize=1;strokeColor=none;fillColor=none;" vertex="1" parent="1">
          <mxGeometry x="1785" y="265" width="170" height="30" as="geometry" />
        </mxCell>
        <mxCell id="eUxJNlt0HOpgg095ER0J-170" value="Mouting all parts" style="text;html=1;align=center;verticalAlign=middle;resizable=0;points=[];autosize=1;strokeColor=none;fillColor=none;" vertex="1" parent="1">
          <mxGeometry x="2005" y="265" width="110" height="30" as="geometry" />
        </mxCell>
        <mxCell id="eUxJNlt0HOpgg095ER0J-171" value="Packaging" style="text;html=1;align=center;verticalAlign=middle;resizable=0;points=[];autosize=1;strokeColor=none;fillColor=none;" vertex="1" parent="1">
          <mxGeometry x="2115" y="280" width="80" height="30" as="geometry" />
        </mxCell>
        <mxCell id="eUxJNlt0HOpgg095ER0J-172" value="Final Delivery" style="text;html=1;align=center;verticalAlign=middle;resizable=0;points=[];autosize=1;strokeColor=none;fillColor=none;" vertex="1" parent="1">
          <mxGeometry x="2210" y="265" width="100" height="30" as="geometry" />
        </mxCell>
        <mxCell id="eUxJNlt0HOpgg095ER0J-173" value="Client" style="text;html=1;align=center;verticalAlign=middle;resizable=0;points=[];autosize=1;strokeColor=none;fillColor=none;" vertex="1" parent="1">
          <mxGeometry x="2330" y="280" width="50" height="30" as="geometry" />
        </mxCell>
        <mxCell id="eUxJNlt0HOpgg095ER0J-174" value="input" style="triangle;whiteSpace=wrap;html=1;direction=south;fillColor=#d5e8d4;strokeColor=#82b366;" vertex="1" parent="1">
          <mxGeometry x="-560" y="-130" width="80" height="60" as="geometry" />
        </mxCell>
        <mxCell id="eUxJNlt0HOpgg095ER0J-175" value="input" style="triangle;whiteSpace=wrap;html=1;direction=south;fillColor=#d5e8d4;strokeColor=#82b366;" vertex="1" parent="1">
          <mxGeometry x="395" y="195" width="80" height="60" as="geometry" />
        </mxCell>
        <mxCell id="eUxJNlt0HOpgg095ER0J-176" value="input" style="triangle;whiteSpace=wrap;html=1;direction=south;fillColor=#d5e8d4;strokeColor=#82b366;" vertex="1" parent="1">
          <mxGeometry x="970" y="195" width="80" height="60" as="geometry" />
        </mxCell>
        <mxCell id="eUxJNlt0HOpgg095ER0J-178" value="" style="shape=cylinder3;whiteSpace=wrap;html=1;boundedLbl=1;backgroundOutline=1;size=3.3333333333332575;" vertex="1" parent="1">
          <mxGeometry x="1020" y="355" width="20" height="30" as="geometry" />
        </mxCell>
        <mxCell id="eUxJNlt0HOpgg095ER0J-179" value="" style="shape=cylinder3;whiteSpace=wrap;html=1;boundedLbl=1;backgroundOutline=1;size=3.3333333333332575;" vertex="1" parent="1">
          <mxGeometry x="445" y="355" width="20" height="30" as="geometry" />
        </mxCell>
        <mxCell id="eUxJNlt0HOpgg095ER0J-180" value="" style="shape=cylinder3;whiteSpace=wrap;html=1;boundedLbl=1;backgroundOutline=1;size=3.3333333333332575;" vertex="1" parent="1">
          <mxGeometry x="1980" y="100" width="20" height="30" as="geometry" />
        </mxCell>
        <mxCell id="eUxJNlt0HOpgg095ER0J-181" value="" style="shape=cylinder3;whiteSpace=wrap;html=1;boundedLbl=1;backgroundOutline=1;size=3.3333333333332575;" vertex="1" parent="1">
          <mxGeometry x="1799" y="-104" width="20" height="30" as="geometry" />
        </mxCell>
        <mxCell id="eUxJNlt0HOpgg095ER0J-182" value="input" style="triangle;whiteSpace=wrap;html=1;direction=south;fillColor=#d5e8d4;strokeColor=#82b366;" vertex="1" parent="1">
          <mxGeometry x="1745" y="-234" width="80" height="60" as="geometry" />
        </mxCell>
        <mxCell id="eUxJNlt0HOpgg095ER0J-183" value="input" style="triangle;whiteSpace=wrap;html=1;direction=south;fillColor=#d5e8d4;strokeColor=#82b366;" vertex="1" parent="1">
          <mxGeometry x="1925" y="-40" width="80" height="60" as="geometry" />
        </mxCell>
        <mxCell id="eUxJNlt0HOpgg095ER0J-184" value="Supplier" style="icon;html=1;image=img/clipart/Gear_128x128.png" vertex="1" parent="1">
          <mxGeometry x="405" y="410" width="60" height="60" as="geometry" />
        </mxCell>
        <mxCell id="eUxJNlt0HOpgg095ER0J-185" value="Supplier" style="icon;html=1;image=img/clipart/Gear_128x128.png" vertex="1" parent="1">
          <mxGeometry x="-180" y="404" width="60" height="60" as="geometry" />
        </mxCell>
        <mxCell id="eUxJNlt0HOpgg095ER0J-186" value="Supplier" style="icon;html=1;image=img/clipart/Gear_128x128.png" vertex="1" parent="1">
          <mxGeometry x="1833" y="56" width="60" height="60" as="geometry" />
        </mxCell>
        <mxCell id="eUxJNlt0HOpgg095ER0J-187" value="Supplier" style="icon;html=1;image=img/clipart/Gear_128x128.png" vertex="1" parent="1">
          <mxGeometry x="2030" y="56" width="60" height="60" as="geometry" />
        </mxCell>
        <mxCell id="eUxJNlt0HOpgg095ER0J-188" value="P.T.: Process Time&lt;div&gt;R.T: Rest Time&lt;/div&gt;&lt;div&gt;S.T: Supplier Time&lt;/div&gt;" style="text;html=1;align=center;verticalAlign=middle;resizable=0;points=[];autosize=1;strokeColor=none;fillColor=none;" vertex="1" parent="1">
          <mxGeometry x="-330" y="624" width="120" height="60" as="geometry" />
        </mxCell>
        <mxCell id="eUxJNlt0HOpgg095ER0J-189" value="R.T" style="text;html=1;align=center;verticalAlign=middle;resizable=0;points=[];autosize=1;strokeColor=none;fillColor=none;" vertex="1" parent="1">
          <mxGeometry x="-321" y="161" width="40" height="30" as="geometry" />
        </mxCell>
        <mxCell id="eUxJNlt0HOpgg095ER0J-190" value="R.T" style="text;html=1;align=center;verticalAlign=middle;resizable=0;points=[];autosize=1;strokeColor=none;fillColor=none;" vertex="1" parent="1">
          <mxGeometry x="-319" y="524" width="40" height="30" as="geometry" />
        </mxCell>
        <mxCell id="eUxJNlt0HOpgg095ER0J-191" value="S.T." style="text;html=1;align=center;verticalAlign=middle;resizable=0;points=[];autosize=1;strokeColor=none;fillColor=none;" vertex="1" parent="1">
          <mxGeometry x="-130" y="448" width="40" height="30" as="geometry" />
        </mxCell>
        <mxCell id="eUxJNlt0HOpgg095ER0J-192" value="P.T." style="text;html=1;align=center;verticalAlign=middle;resizable=0;points=[];autosize=1;strokeColor=none;fillColor=none;" vertex="1" parent="1">
          <mxGeometry x="-240" y="538" width="40" height="30" as="geometry" />
        </mxCell>
        <mxCell id="eUxJNlt0HOpgg095ER0J-193" value="P.T." style="text;html=1;align=center;verticalAlign=middle;resizable=0;points=[];autosize=1;strokeColor=none;fillColor=none;" vertex="1" parent="1">
          <mxGeometry x="-245" y="182" width="40" height="30" as="geometry" />
        </mxCell>
        <mxCell id="eUxJNlt0HOpgg095ER0J-194" value="R.T." style="text;html=1;align=center;verticalAlign=middle;resizable=0;points=[];autosize=1;strokeColor=none;fillColor=none;" vertex="1" parent="1">
          <mxGeometry x="-139" y="354" width="40" height="30" as="geometry" />
        </mxCell>
        <mxCell id="eUxJNlt0HOpgg095ER0J-195" value="P.T." style="text;html=1;align=center;verticalAlign=middle;resizable=0;points=[];autosize=1;strokeColor=none;fillColor=none;" vertex="1" parent="1">
          <mxGeometry x="-65" y="385" width="40" height="30" as="geometry" />
        </mxCell>
        <mxCell id="eUxJNlt0HOpgg095ER0J-196" value="R.T." style="text;html=1;align=center;verticalAlign=middle;resizable=0;points=[];autosize=1;strokeColor=none;fillColor=none;" vertex="1" parent="1">
          <mxGeometry x="54" y="360" width="40" height="30" as="geometry" />
        </mxCell>
        <mxCell id="eUxJNlt0HOpgg095ER0J-197" value="P.T." style="text;html=1;align=center;verticalAlign=middle;resizable=0;points=[];autosize=1;strokeColor=none;fillColor=none;" vertex="1" parent="1">
          <mxGeometry x="130" y="385" width="40" height="30" as="geometry" />
        </mxCell>
        <mxCell id="eUxJNlt0HOpgg095ER0J-198" value="P.T." style="text;html=1;align=center;verticalAlign=middle;resizable=0;points=[];autosize=1;strokeColor=none;fillColor=none;" vertex="1" parent="1">
          <mxGeometry x="320" y="385" width="40" height="30" as="geometry" />
        </mxCell>
        <mxCell id="eUxJNlt0HOpgg095ER0J-199" value="P.T." style="text;html=1;align=center;verticalAlign=middle;resizable=0;points=[];autosize=1;strokeColor=none;fillColor=none;" vertex="1" parent="1">
          <mxGeometry x="510" y="384" width="40" height="30" as="geometry" />
        </mxCell>
        <mxCell id="eUxJNlt0HOpgg095ER0J-200" value="P.T." style="text;html=1;align=center;verticalAlign=middle;resizable=0;points=[];autosize=1;strokeColor=none;fillColor=none;" vertex="1" parent="1">
          <mxGeometry x="700" y="384" width="40" height="30" as="geometry" />
        </mxCell>
        <mxCell id="eUxJNlt0HOpgg095ER0J-201" value="P.T." style="text;html=1;align=center;verticalAlign=middle;resizable=0;points=[];autosize=1;strokeColor=none;fillColor=none;" vertex="1" parent="1">
          <mxGeometry x="890" y="385" width="40" height="30" as="geometry" />
        </mxCell>
        <mxCell id="eUxJNlt0HOpgg095ER0J-202" value="P.T." style="text;html=1;align=center;verticalAlign=middle;resizable=0;points=[];autosize=1;strokeColor=none;fillColor=none;" vertex="1" parent="1">
          <mxGeometry x="1085" y="385" width="40" height="30" as="geometry" />
        </mxCell>
        <mxCell id="eUxJNlt0HOpgg095ER0J-203" value="P.T." style="text;html=1;align=center;verticalAlign=middle;resizable=0;points=[];autosize=1;strokeColor=none;fillColor=none;" vertex="1" parent="1">
          <mxGeometry x="1280" y="385" width="40" height="30" as="geometry" />
        </mxCell>
        <mxCell id="eUxJNlt0HOpgg095ER0J-204" value="P.T." style="text;html=1;align=center;verticalAlign=middle;resizable=0;points=[];autosize=1;strokeColor=none;fillColor=none;" vertex="1" parent="1">
          <mxGeometry x="1470" y="475" width="40" height="30" as="geometry" />
        </mxCell>
        <mxCell id="eUxJNlt0HOpgg095ER0J-205" value="P.T." style="text;html=1;align=center;verticalAlign=middle;resizable=0;points=[];autosize=1;strokeColor=none;fillColor=none;" vertex="1" parent="1">
          <mxGeometry x="1470" y="295" width="40" height="30" as="geometry" />
        </mxCell>
        <mxCell id="eUxJNlt0HOpgg095ER0J-206" value="P.T." style="text;html=1;align=center;verticalAlign=middle;resizable=0;points=[];autosize=1;strokeColor=none;fillColor=none;" vertex="1" parent="1">
          <mxGeometry x="1680" y="475" width="40" height="30" as="geometry" />
        </mxCell>
        <mxCell id="eUxJNlt0HOpgg095ER0J-207" value="P.T." style="text;html=1;align=center;verticalAlign=middle;resizable=0;points=[];autosize=1;strokeColor=none;fillColor=none;" vertex="1" parent="1">
          <mxGeometry x="1680" y="295" width="40" height="30" as="geometry" />
        </mxCell>
        <mxCell id="eUxJNlt0HOpgg095ER0J-208" value="P.T." style="text;html=1;align=center;verticalAlign=middle;resizable=0;points=[];autosize=1;strokeColor=none;fillColor=none;" vertex="1" parent="1">
          <mxGeometry x="1850" y="384" width="40" height="30" as="geometry" />
        </mxCell>
        <mxCell id="eUxJNlt0HOpgg095ER0J-209" value="P.T." style="text;html=1;align=center;verticalAlign=middle;resizable=0;points=[];autosize=1;strokeColor=none;fillColor=none;" vertex="1" parent="1">
          <mxGeometry x="2040" y="385" width="40" height="30" as="geometry" />
        </mxCell>
        <mxCell id="eUxJNlt0HOpgg095ER0J-210" value="P.T." style="text;html=1;align=center;verticalAlign=middle;resizable=0;points=[];autosize=1;strokeColor=none;fillColor=none;" vertex="1" parent="1">
          <mxGeometry x="2240" y="384" width="40" height="30" as="geometry" />
        </mxCell>
        <mxCell id="eUxJNlt0HOpgg095ER0J-211" value="R.T." style="text;html=1;align=center;verticalAlign=middle;resizable=0;points=[];autosize=1;strokeColor=none;fillColor=none;" vertex="1" parent="1">
          <mxGeometry x="255" y="360" width="40" height="30" as="geometry" />
        </mxCell>
        <mxCell id="eUxJNlt0HOpgg095ER0J-212" value="R.T." style="text;html=1;align=center;verticalAlign=middle;resizable=0;points=[];autosize=1;strokeColor=none;fillColor=none;" vertex="1" parent="1">
          <mxGeometry x="380" y="360" width="40" height="30" as="geometry" />
        </mxCell>
        <mxCell id="eUxJNlt0HOpgg095ER0J-213" value="R.T." style="text;html=1;align=center;verticalAlign=middle;resizable=0;points=[];autosize=1;strokeColor=none;fillColor=none;" vertex="1" parent="1">
          <mxGeometry x="630" y="360" width="40" height="30" as="geometry" />
        </mxCell>
        <mxCell id="eUxJNlt0HOpgg095ER0J-214" value="R.T." style="text;html=1;align=center;verticalAlign=middle;resizable=0;points=[];autosize=1;strokeColor=none;fillColor=none;" vertex="1" parent="1">
          <mxGeometry x="820" y="360" width="40" height="30" as="geometry" />
        </mxCell>
        <mxCell id="eUxJNlt0HOpgg095ER0J-215" value="R.T." style="text;html=1;align=center;verticalAlign=middle;resizable=0;points=[];autosize=1;strokeColor=none;fillColor=none;" vertex="1" parent="1">
          <mxGeometry x="960" y="360" width="40" height="30" as="geometry" />
        </mxCell>
        <mxCell id="eUxJNlt0HOpgg095ER0J-216" value="R.T." style="text;html=1;align=center;verticalAlign=middle;resizable=0;points=[];autosize=1;strokeColor=none;fillColor=none;" vertex="1" parent="1">
          <mxGeometry x="1205" y="360" width="40" height="30" as="geometry" />
        </mxCell>
        <mxCell id="eUxJNlt0HOpgg095ER0J-217" value="R.T." style="text;html=1;align=center;verticalAlign=middle;resizable=0;points=[];autosize=1;strokeColor=none;fillColor=none;" vertex="1" parent="1">
          <mxGeometry x="1350" y="360" width="40" height="30" as="geometry" />
        </mxCell>
        <mxCell id="eUxJNlt0HOpgg095ER0J-218" value="R.T." style="text;html=1;align=center;verticalAlign=middle;resizable=0;points=[];autosize=1;strokeColor=none;fillColor=none;" vertex="1" parent="1">
          <mxGeometry x="1600" y="445" width="40" height="30" as="geometry" />
        </mxCell>
        <mxCell id="eUxJNlt0HOpgg095ER0J-219" value="R.T." style="text;html=1;align=center;verticalAlign=middle;resizable=0;points=[];autosize=1;strokeColor=none;fillColor=none;" vertex="1" parent="1">
          <mxGeometry x="1600" y="260" width="40" height="30" as="geometry" />
        </mxCell>
        <mxCell id="eUxJNlt0HOpgg095ER0J-220" value="R.T." style="text;html=1;align=center;verticalAlign=middle;resizable=0;points=[];autosize=1;strokeColor=none;fillColor=none;" vertex="1" parent="1">
          <mxGeometry x="1745" y="360" width="40" height="30" as="geometry" />
        </mxCell>
        <mxCell id="eUxJNlt0HOpgg095ER0J-221" value="R.T." style="text;html=1;align=center;verticalAlign=middle;resizable=0;points=[];autosize=1;strokeColor=none;fillColor=none;" vertex="1" parent="1">
          <mxGeometry x="1980" y="354" width="40" height="30" as="geometry" />
        </mxCell>
        <mxCell id="eUxJNlt0HOpgg095ER0J-222" value="R.T." style="text;html=1;align=center;verticalAlign=middle;resizable=0;points=[];autosize=1;strokeColor=none;fillColor=none;" vertex="1" parent="1">
          <mxGeometry x="2155" y="360" width="40" height="30" as="geometry" />
        </mxCell>
        <mxCell id="eUxJNlt0HOpgg095ER0J-223" value="R.T." style="text;html=1;align=center;verticalAlign=middle;resizable=0;points=[];autosize=1;strokeColor=none;fillColor=none;" vertex="1" parent="1">
          <mxGeometry x="1790" y="105" width="40" height="30" as="geometry" />
        </mxCell>
        <mxCell id="eUxJNlt0HOpgg095ER0J-225" value="P.T." style="text;html=1;align=center;verticalAlign=middle;resizable=0;points=[];autosize=1;strokeColor=none;fillColor=none;" vertex="1" parent="1">
          <mxGeometry x="1789" y="190" width="40" height="30" as="geometry" />
        </mxCell>
        <mxCell id="eUxJNlt0HOpgg095ER0J-226" value="P.T." style="text;html=1;align=center;verticalAlign=middle;resizable=0;points=[];autosize=1;strokeColor=none;fillColor=none;" vertex="1" parent="1">
          <mxGeometry x="1970" y="190" width="40" height="30" as="geometry" />
        </mxCell>
        <mxCell id="eUxJNlt0HOpgg095ER0J-228" value="S.T." style="text;html=1;align=center;verticalAlign=middle;resizable=0;points=[];autosize=1;strokeColor=none;fillColor=none;" vertex="1" parent="1">
          <mxGeometry x="456" y="455" width="40" height="30" as="geometry" />
        </mxCell>
        <mxCell id="eUxJNlt0HOpgg095ER0J-229" value="S.T." style="text;html=1;align=center;verticalAlign=middle;resizable=0;points=[];autosize=1;strokeColor=none;fillColor=none;" vertex="1" parent="1">
          <mxGeometry x="1880" y="105" width="40" height="30" as="geometry" />
        </mxCell>
        <mxCell id="eUxJNlt0HOpgg095ER0J-230" value="S.T." style="text;html=1;align=center;verticalAlign=middle;resizable=0;points=[];autosize=1;strokeColor=none;fillColor=none;" vertex="1" parent="1">
          <mxGeometry x="2079" y="104" width="40" height="30" as="geometry" />
        </mxCell>
      </root>
    </mxGraphModel>
  </diagram>
</mxfile>
